<svg height="477.60001pt" viewBox="0 0 477.60001 477.60001" width="477.60001pt" xmlns="http://www.w3.org/2000/svg"><path d="m477.601562 238.800781c0 131.886719-106.914062 238.800781-238.800781 238.800781s-238.800781-106.914062-238.800781-238.800781 106.914062-238.800781 238.800781-238.800781 238.800781 106.914062 238.800781 238.800781zm0 0" fill="#382b73"/><path d="m445.398438 238.800781c0 114.101563-92.496094 206.597657-206.597657 206.597657-114.101562 0-206.597656-92.496094-206.597656-206.597657 0-114.101562 92.496094-206.597656 206.597656-206.597656 114.101563 0 206.597657 92.496094 206.597657 206.597656zm0 0" fill="#473080"/><path d="m373.9375 211.195312c0-.015624 0-.035156.003906-.050781.007813-.277343.011719-.554687.011719-.832031v-.042969s0-.003906 0-.007812c-.003906-.390625-.019531-.78125-.050781-1.167969 0 0 0 0 0-.003906-.003906-.039063-.007813-.078125-.011719-.117188 0-.007812 0-.011718 0-.015625-.007813-.105469-.019531-.210937-.027344-.316406-.003906-.023437-.003906-.046875-.007812-.074219-.007813-.085937-.015625-.171875-.027344-.253906-.007813-.046875-.011719-.09375-.015625-.136719v-.003906c-.011719-.109375-.027344-.214844-.042969-.320313 0-.023437-.003906-.042968-.007812-.0625-.054688-.390624-.121094-.777343-.203125-1.164062 0-.011719-.003906-.019531-.003906-.027344-.023438-.113281-.046876-.226562-.074219-.335937 0-.003907 0-.007813-.003907-.015625-.007812-.035156-.015624-.074219-.023437-.113282 0-.003906-.003906-.007812-.003906-.011718-.019531-.082032-.039063-.167969-.058594-.25-.003906-.003906-.003906-.011719-.003906-.015625-.03125-.128907-.066407-.253907-.097657-.382813 0-.003906-.003906-.007812-.003906-.011718-.007812-.027344-.015625-.054688-.023437-.082032v-.007812c-.035157-.121094-.066407-.238282-.105469-.359375 0-.003907 0-.003907-.003906-.007813v-.003906c-.074219-.257812-.15625-.515625-.242188-.769531-.003906-.007813-.007812-.015625-.011718-.027344 0-.003906-.003907-.011719-.003907-.015625-.078125-.230469-.160156-.457031-.246093-.679688-.003907-.003906-.003907-.011718-.007813-.015624-.011719-.027344-.019531-.054688-.03125-.085938-.003906-.003906-.003906-.011719-.007813-.015625-.035156-.089844-.070312-.175781-.105468-.265625 0 0 0 0 0-.003906-.011719-.023438-.019532-.046875-.03125-.070313-.042969-.113281-.089844-.226562-.140625-.335937l-.015625-.039063c-.003906 0-.003906-.003906-.003906-.007812-.050782-.117188-.105469-.234375-.160157-.355469-1.34375-2.941406-3.390625-5.59375-5.996093-7.679688l-49.621094-39.769531c-10.664063-8.546875-22.519532-15.585937-35.378906-20.214843-9.464844-3.40625-19.332032-5.675782-29.410157-6.664063-3.847656-.375-7.992187-.65625-12.375-.800781-.042969-.003906-.082031-.003906-.121093-.003906-.367188-.015626-.730469-.027344-1.101563-.035157l-.078125-.003906c-.378906-.007813-.761719-.019531-1.140625-.027344-.011719 0-.019531 0-.027344 0-.769531-.015625-1.542969-.027343-2.328125-.039062-.042968 0-.085937 0-.128906-.003907-.367188-.003906-.734375-.007812-1.105469-.007812-.050781 0-.101562 0-.148437 0-.789063-.003906-1.582032-.003906-2.378906 0-.011719 0-.019532 0-.03125 0-.394532 0-.789063.003906-1.179688.007812-.039062 0-.078125 0-.117188.003907-.386718.003906-.773437.011719-1.164062.015625-.042969 0-.085938.003906-.125.003906-.390625.003906-.78125.011719-1.171875.023438-.039063 0-.074219 0-.113281 0-.796875.019531-1.605469.042968-2.414063.070312l-.144531.003906c-.398438.011719-.796875.027344-1.195312.042969-.035157 0-.070313 0-.105469.003906-.84375.035157-1.691407.070313-2.546875.117188-.007813 0-.019532 0-.027344 0-.410156.019531-.820312.042969-1.234375.066406-.046875.003906-.097656.007813-.144531.007813-.398438.023437-.796875.046874-1.199219.074218-.054687.003906-.109375.003906-.164063.007813-.414062.027343-.828124.054687-1.242187.082031-.007813 0-.015625 0-.023437.003906-.429688.027344-.859376.058594-1.292969.089844l-.054688.003906c-.414062.03125-.832031.066406-1.25.097656-.054687.003907-.101562.007813-.15625.011719-.402343.035157-.804687.066407-1.207031.101563-.066406.007812-.132812.011718-.203125.019531-.410156.035156-.820313.070313-1.234375.109375-.019531.003906-.039062.003906-.0625.007812-.421875.039063-.84375.078126-1.265625.121094-.027344 0-.058594.003906-.085937.007813-.414063.039062-.832032.085937-1.246094.128906-.066406.007813-.132813.011719-.203125.019531-.398438.042969-.796875.085938-1.195313.132813-.074218.007812-.148437.015625-.222656.023437-.414062.046875-.832031.09375-1.246094.140625-.019531.003907-.039062.003907-.058594.007813-.417968.050781-.835937.097656-1.253906.152344-.046875.003906-.09375.011718-.136718.015624-.417969.050782-.832032.101563-1.25.160157-.066407.007812-.132813.015625-.199219.023437-.417969.054688-.835938.113282-1.257813.167969-.050781.007813-.101562.015625-.152344.023437-.433593.058594-.867187.121094-1.300781.183594-.019531 0-.039062.003906-.058593.007813-.421876.058593-.84375.121093-1.269532.183593-.050781.007813-.101562.015626-.148437.023438-.417969.0625-.839844.128906-1.257813.195312-.070312.007813-.136718.019532-.203125.03125-.414062.066407-.828125.132813-1.242187.199219-.070313.011719-.140625.023438-.210938.035157-.429687.070312-.855468.140624-1.285156.214843-.019531.003907-.035156.007813-.054688.011719-.433593.074219-.871093.148438-1.304687.226562-.039063.007813-.082031.015626-.121094.023438-.429687.074219-.859375.152344-1.289062.234375-.0625.011719-.128907.023437-.191407.035156-.425781.078125-.847656.160157-1.273437.242188-.0625.011719-.121094.019531-.179687.03125-.433594.085937-.867188.167969-1.300782.253906-.03125.007813-.070312.015625-.101562.019531-.414063.085938-.832032.167969-1.246094.253906-.058594.015626-.117188.027344-.171875.039063-.417969.085937-.835937.171875-1.25.261719-.082031.019531-.164063.035156-.242187.054687-.410157.085938-.820313.175781-1.230469.265625-.085938.019532-.171875.039063-.257813.058594-.425781.097656-.851562.191406-1.277344.289062-.011718.003907-.019531.003907-.027343.007813-.433594.097656-.867188.199219-1.296875.304687-.0625.011719-.125.027344-.183594.039063-.421875.101563-.839844.203125-1.261719.304687-.078125.019532-.160156.039063-.238281.058594-.410156.101563-.824219.207032-1.238281.308594-.082031.023438-.164063.042969-.242188.0625-.425781.109375-.847656.21875-1.273437.328125-.027344.007813-.050782.015625-.078125.019531-.433594.117188-.867188.230469-1.300781.347656-.042969.011719-.085938.023438-.132813.035157-.421875.113281-.839844.230469-1.261719.347656-.085937.023437-.175781.050781-.261718.074219-.414063.113281-.828126.234375-1.242188.351562-.070312.019532-.136719.039063-.203125.058594-.4375.125-.871094.25-1.304687.378906-.019532.003906-.039063.011719-.058594.019532-.425782.125-.855469.253906-1.28125.382812-.058594.015625-.117188.035156-.175782.054688-.417968.125-.835937.257812-1.253906.386718-.082031.027344-.164062.050782-.25.078125-.40625.128907-.816406.257813-1.222656.390625-.085938.027344-.171875.054688-.257812.082032-.417969.136718-.839844.273437-1.257813.414062-.023437.007812-.050781.015625-.070313.023438-.421874.140624-.839843.285156-1.257812.425781-.0625.023437-.128906.042969-.191406.066406-.417969.140625-.832032.289063-1.246094.433594-.078125.027343-.15625.054687-.234375.082031-.414063.144531-.832031.296875-1.246094.445312-.066406.023438-.132812.046876-.199219.074219-.433593.15625-.867187.3125-1.296874.472657-.007813.003906-.015626.003906-.019532.007812-.429687.160156-.859375.324219-1.289062.488281-.0625.023438-.128906.050781-.191406.074219-.410157.15625-.820313.316406-1.226563.476562-.085937.03125-.171875.066407-.257813.101563-.40625.160156-.804687.320313-1.210937.480469-.074219.03125-.148437.0625-.222656.089844-.417969.171874-.835938.339843-1.253907.511718-.007812.003906-.011718.007813-.019531.011719-13.753906 5.707031-24.875 13.089844-33.128906 21.976563-.160156.175781-.320313.351562-.480469.523437-1.117187 1.230469-2.183594 2.484375-3.191406 3.769531-.429688.550782-.851562 1.109375-1.265625 1.667969-.6875.933594-1.347656 1.882813-1.980469 2.847656-.125.191407-.25.382813-.375.578125-.246094.386719-.492187.777344-.730468 1.167969-1.433594 2.351563-2.703126 4.78125-3.808594 7.289063-.183594.417968-.363282.839843-.539063 1.261718-.613281 1.476563-1.167969 2.984375-1.664062 4.511719-.144531.441406-.28125.878906-.414063 1.320313-.066406.222656-.132812.441406-.199218.664062-.125.441406-.25.890625-.367188 1.335938-.300781 1.121093-.566406 2.253906-.804688 3.398437-.097656.457031-.1875.917969-.273437 1.382813-1.074219 5.78125-1.402344 11.882812-.96875 18.285156v.007812c0 4.558594.6875 9.085938 2.039063 13.4375l1.175781 3.800782c0 .003906.003906.003906.003906.007812l5.496094 17.71875 6.855469 22.105469 3.628906 11.695312.128906.414063c.035156.113281.070312.226562.109375.335937.007813.035157.019531.0625.03125.09375 0 .007813.003906.015625.003906.019531l.003907.007813c.011718.035156.023437.070313.035156.101563.011718.035156.023437.070312.035156.101562.011719.046875.027344.085938.046875.132812 0 .003907 0 .007813.003906.011719 0 .003907.003907.007813.003907.011719.023437.0625.042968.125.066406.1875 0 .003906 0 .007812.003906.011719 0 .003906.003906.003906.003906.007812v.007813c.011719.023437.019532.050781.03125.078125v.007812c.003906.003907.003906.007813.003906.007813.023438.070312.050782.136718.074219.203125 0 .003906 0 .003906.003907.003906v.003906c.003906.011719.007812.019531.011718.035157.011719.03125.023438.058593.035156.09375l.003907.003906c0 .003906.003906.003906.003906.007812.007813.023438.019531.054688.027344.078125.011719.035157.027343.066407.039062.101563v.003906c.023438.050781.042969.097656.058594.148438.023437.054687.046875.109374.066406.164062.023438.058594.046875.113281.070313.167969v.003906c.019531.050781.039062.101563.058594.152344v.003906c.027343.054687.046874.109375.070312.164063.007812.015624.015625.03125.023438.046874 0 .003907.003906.011719.003906.015626.015625.03125.027344.0625.039062.09375.003906 0 .003906.003906.003906.007812l.003907.007812c.019531.042969.042969.089844.0625.132813.023437.058594.050781.121094.078125.179687.023437.046876.046875.097657.070312.148438.023438.054688.046875.105469.074219.15625v.003906c0 .003906.003906.003906.003906.007813.023438.050781.042969.097656.066407.148437.027343.054688.054687.105469.078124.160156v.003907h.003907c.023437.050781.046875.097656.070312.148437.027344.050782.050781.101563.078125.152344 0 0 0 .003906.003906.003906.027344.050782.054688.105469.082032.160156.023437.042969.046875.089844.070312.132813.027344.058594.058594.113281.089844.167969.015625.03125.03125.058594.046875.089844.007813.011718.011719.023437.019531.035156 0 .003906.003906.003906.003906.007812l.007813.011719c0 .003906.003906.007813.003906.007813.023438.046874.046875.085937.070313.132812.003906.003906.007812.011719.011718.019531h.003907v.003907c.027343.050781.054687.097656.082031.148437.027344.046875.050781.09375.078125.136719 0 0 0 .003906.003906.007812 0 0 0 .003906.003907.003906.035156.058594.066406.117188.101562.175782.015625.023437.027344.046875.042969.074218.03125.050782.0625.105469.09375.15625.003906.007813.007812.019532.015625.027344.003906.003906.007812.011719.011718.015625.027344.042969.050782.085938.074219.128907 0 0 .003907 0 .003907.003906v.003906c.003906.003906.007812.007812.007812.011719.03125.042969.054688.089843.082031.132812.003907.007813.007813.015625.011719.019531.003906.003907.003906.007813.007812.011719.023438.039063.046876.078125.070313.113281.03125.050782.0625.097657.09375.148438.003906.003906.003906.003906.003906.007812.003907 0 .003907.003907.003907.003907.027343.046875.054687.089843.085937.132812.03125.050781.0625.101563.097656.152344 0 0 .003907.003906.003907.003906v.003907c.027343.042968.054687.082031.082031.125.011719.015624.019531.027343.03125.046874.027343.035157.050781.074219.078125.113282.027344.042968.054687.082031.082031.125.035156.046875.066406.09375.097656.140625.003907.003906.003907.007812.007813.007812 0 .003907.007812.007813.007812.015625l.007813.007813c.019531.03125.042969.066406.066406.097656v.003906c.003906.003907.007813.003907.007813.007813.035156.050781.074218.109375.113281.164062.027343.035156.054687.074219.082031.109375.035156.050781.074219.097657.109375.148438.003906.007812.007813.011719.011719.019531.027344.035156.054687.070312.078125.105469.042969.054687.082031.105469.121093.160156 0 0 .003907 0 .003907.003906.027343.039063.054687.070313.082031.105469 0 .003906.003906.007812.003906.007812.003906.003907.007813.007813.007813.011719.003906.003907.007812.007813.011719.011719.03125.042969.066406.085938.097656.128906v.003906h.003906c.027344.035157.054688.070313.082031.109376.003907.003906.007813.003906.007813.007812l.007812.011719c.023438.027343.046875.058593.070313.085937.011719.015625.027343.03125.039062.046875 0 0 0 .003907.003907.003907 0 .003906 0 .003906.003906.007812.027344.035156.058594.070312.085937.105469.042969.054687.085938.105469.128907.160156.023437.027344.046874.054687.070312.082031 0 .003906.003906.007813.007812.011719.003907.007813.011719.011719.019532.019531.027344.039063.058594.074219.089844.113282.007812.007812.015624.019531.027343.03125 0 0 .003907.003906.003907.007812h.003906c.027344.035156.054687.066406.082031.097656.042969.050782.089844.105469.136719.15625v.003906s.003906 0 .003906.003907c.015625.019531.03125.035156.046875.054687 0 0 .003906.003906.003906.003906v.003907c.042969.046875.082031.09375.125.140625.128907.144531.257813.285156.390625.425781.109375.113281.214844.226563.324219.339844.007813.007812.011719.011719.019531.015625.003906.003906.007813.007812.011719.011718.003906.003907.007813.007813.011719.015626.054687.054687.109375.109374.164062.164062.015625.015625.03125.035156.050782.050781.066406.066407.132812.132813.203124.203125.007813.007813.019532.019532.03125.03125.0625.058594.125.117188.183594.175782.023438.023437.046875.046874.066406.066406.058594.054687.117188.109375.175782.164062.003906.003906.003906.003906.007812.003906.019532.019532.042969.042969.0625.0625 0 0 0 0 .003906.003907.058594.054687.121094.109375.183594.164062.019532.019531.039063.035157.058594.054688.003906 0 .003906.003906.007812.003906.058594.054687.121094.109375.179688.160156.023438.019531.046875.042969.070312.0625.003907.003907.007813.007813.011719.007813.058594.050781.117188.101562.175781.152344.027344.023437.054688.046874.082032.070312.058594.050781.121094.101562.179687.152344.003907.003906.007813.003906.007813.007812l.003906.003906c.015625.011719.03125.023438.046875.035157l.007813.007812c.003906 0 .003906.003907.007812.007813.0625.050781.128906.105468.191406.15625.003906.003906.007813.003906.007813.007812.003906 0 .003906 0 .007812.003906.011719.011719.027344.023438.046875.035157.066406.054687.136719.109375.207032.167969.015624.011718.035156.023437.050781.039062.007812.003906.011719.007812.015625.015625.050781.039063.097656.074219.144531.113281.015625.011719.035156.027344.054687.042969.019532.011719.035157.027344.054688.039063.058594.042968.113281.089843.171875.132812.136719.101562.273437.199219.410156.296875.199219.144531.402344.28125.605469.417969 0 .003906.003906.003906.003906.003906.097656.066406.199219.132812.296875.195312l.019531.015626c.097657.0625.195313.125.296876.1875.003906.003906.007812.003906.011718.007812.101563.0625.199219.125.300782.1875.003906 0 .011718.003906.015624.003906.035157.023438.070313.046875.109376.070313.0625.035156.125.074219.1875.109375.015624.007812.03125.019531.042968.027344.078125.046874.160156.09375.242188.136718.003906.003906.007812.007813.011718.007813.003907.003906.007813.003906.007813.003906.007813.007813.015625.011719.027344.015625l.003906.003906h.003906c.082031.046875.164063.09375.246094.136719.015625.007813.03125.019531.046875.027344v.003906h.003906c.078125.042969.160156.089844.238282.128906.003906.003907.003906.003907.007812.003907.003906.003906.003906.003906.007812.003906.011719.007812.027344.019531.042969.023437.082031.042969.160157.085938.242188.128907h.007812v.003906c.019531.007812.039063.015625.054688.027344.046875.023437.089843.046874.136719.070312.039062.019531.078124.039062.113281.054688.011719.007812.023437.011718.035156.015624 0 0 0 .003907.003906.003907.003907 0 .011719.003906.015625.003906.085938.046875.171875.085937.261719.128906.003906.003907.007813.007813.015625.007813.003906.003906.007812.003906.007812.007812.09375.042969.1875.085938.28125.132813.007813 0 .011719.003906.015626.003906 0 0 0 0 .003906.003906h.003906c0 .003907.003906.003907.007812.003907.070313.03125.140626.066406.207032.097656.027344.011718.050781.019531.078125.03125.082031.039062.167969.078125.25.113281.222656.097656.445312.191406.667969.28125.222656.089844.449218.175781.675781.257813l31.632812 11.667968 9.007813 3.324219c3.3125 1.21875 6.980468.09375 9.050781-2.652344l61.765625 26.601563c.027344.105468.054688.210937.085938.3125.0625.222656.128906.441406.203124.660156.074219.214844.152344.429688.234376.644531.042968.105469.085937.210938.132812.316407.085938.207031.179688.414062.277344.617187.195312.410156.414062.808594.648437 1.191406.289063.480469.609375.945313.957031 1.382813.140626.175781.285157.351562.429688.519531.292969.335937.601562.664063.929688.972656.324218.308594.664062.601563 1.015624.878907.175782.136718.355469.273437.539063.402343.550781.390625 1.125.742188 1.730469 1.054688.199218.101562.40625.199219.609375.292969 1.761719.796874 3.710937 1.238281 5.765625 1.238281 2.535156 0 4.914062-.675781 6.964844-1.855469.097656-.054688.195312-.113281.292968-.171875 1.25-.757813 2.371094-1.710937 3.324219-2.8125.144531-.167969.289063-.339844.429687-.515625.34375-.441406.664063-.902344.957032-1.386719.175781-.285156.339844-.582031.496094-.882812.152343-.304688.296874-.613281.429687-.925781.046875-.105469.089844-.210938.128906-.316407.085938-.210937.164063-.425781.238281-.644531.074219-.214844.140626-.433594.203126-.65625s.121093-.445312.171874-.671875c.234376-1.015625.359376-2.074219.359376-3.160156v-3c0-.867188-.078126-1.714844-.230469-2.539063l27.964843-85.976562c1.90625-.394532 3.863282-.808594 5.855469-1.242188.011719 0 .027344-.003906.042969-.007812.019531-.003906.042969-.011719.066406-.015625 3.988282-.867188 8.117188-1.808594 12.285156-2.816407l.027344-.007812c.019532-.003906.042969-.007812.0625-.015625.257813-.0625.515625-.125.777344-.1875.019531-.007813.039062-.011719.058594-.015625.015625-.003906.027344-.007812.039062-.011719 4.476563-1.09375 8.984375-2.273437 13.394532-3.527343.015624-.003907.03125-.007813.042968-.011719.074219-.019531.148438-.042969.222656-.0625 1.90625-.546875 3.789063-1.101563 5.644532-1.675781l.097656-.027344c.683594-.214844 1.367188-.429688 2.042969-.640625.035156-.011719.070312-.023438.109375-.035157.679687-.21875 1.355468-.4375 2.023437-.65625l.058594-.019531c.671875-.21875 1.34375-.445312 2.003906-.671875.03125-.011718.0625-.019531.09375-.03125 1.824219-.625 3.605469-1.265625 5.332031-1.917968.007813-.003907.015626-.007813.023438-.011719.011719-.003907.019531-.003907.027344-.007813.5-.191406.996094-.382812 1.488281-.574218.007813-.003907.015625-.007813.019531-.011719.039063-.015625.074219-.027344.109375-.042969 2.867188-1.125 5.558594-2.292969 8.015625-3.503906.011719-.003906.027344-.011719.039063-.019532.425781-.210937.847656-.421874 1.253906-.632812.132813-.070312.265625-.136719.394531-.210938.042969-.023437.082032-.046874.121094-.070312.085938-.050781.171875-.097656.257812-.148438.046876-.027343.09375-.058593.140626-.085937.074218-.046875.152343-.09375.226562-.144531.046875-.03125.09375-.058594.144531-.09375.070313-.042969.140625-.09375.210938-.140625.046875-.03125.09375-.066407.140625-.097657.070312-.050781.136718-.097656.207031-.148437.042969-.035156.085937-.066406.128906-.101563.074219-.050781.144531-.109374.214844-.164062.035156-.027344.074219-.058594.109375-.085938.078125-.066406.160156-.132812.238281-.199218.023438-.019532.046875-.042969.074219-.0625.207031-.179688.40625-.359375.597656-.546875.027344-.03125.058594-.058594.085938-.085938.066406-.066406.132812-.132812.195312-.199219.035156-.03125.066406-.070312.097656-.105468.058594-.058594.113282-.117188.171876-.179688.035156-.042968.066406-.078125.105468-.121094.050782-.054687.101563-.117187.152344-.175781.035156-.039062.066406-.082031.101562-.121093.050782-.0625.101563-.125.152344-.1875.027344-.039063.058594-.074219.089844-.117188.054688-.066406.105469-.136719.160156-.207031.023438-.03125.046875-.0625.074219-.097657.054687-.078124.113281-.15625.167969-.238281.019531-.027343.035156-.050781.054687-.074219.09375-.136718.183594-.273437.269531-.410156.042969-.066406.082032-.128906.121094-.195312.023438-.035156.042969-.070313.066406-.109375.035157-.058594.074219-.117188.105469-.179688.023438-.039062.046875-.078125.070313-.121093.03125-.054688.066406-.113282.097656-.171876.019531-.039062.042969-.078124.066406-.121093.03125-.0625.0625-.117188.09375-.179688.019532-.039062.039063-.078125.0625-.121093.03125-.058594.058594-.121094.09375-.183594.015625-.035156.035156-.074219.050782-.109375.035156-.074219.070312-.144531.101562-.21875.015625-.027344.027344-.054688.039062-.085938.09375-.203125.179688-.40625.261719-.609375.011719-.03125.027344-.066406.039063-.097656.027344-.074219.058594-.144531.085937-.21875.015625-.035156.027344-.070312.039063-.105469.027344-.070312.050781-.136719.074218-.203125.015626-.039062.027344-.082031.042969-.121094.023438-.070312.046875-.136718.070313-.203124.011718-.035157.023437-.070313.035156-.109376.023438-.074218.046875-.148437.070312-.21875.011719-.035156.019532-.066406.03125-.097656.027344-.089844.054688-.179687.078126-.269531.003906-.015625.011718-.03125.015624-.042969.03125-.113281.0625-.21875.089844-.328125.007813-.023437.011719-.042969.019532-.0625.003906-.019531.007812-.039062.011718-.058593.023438-.085938.046875-.175782.066406-.261719 0-.003907 0-.003907 0-.003907.003907-.011718.007813-.023437.007813-.035156.027344-.117187.054687-.230468.082031-.34375v-.003906c.011719-.054688.019532-.109375.03125-.160156 0-.003906.003906-.007813.003906-.011719.015626-.070313.027344-.144531.046876-.214844 0-.003906 0-.007812 0-.007812.011718-.054688.019531-.109375.03125-.160157.070312-.371093.125-.734374.175781-1.101562 0-.023438.003906-.046875.007812-.066406 0-.003906 0-.003906 0-.007813.015625-.125.03125-.25.042969-.375 0-.003906 0-.003906 0-.007812.003906-.03125.007812-.066407.011719-.097657.019531-.226562.039062-.449218.050781-.675781 0-.003906 0-.007812 0-.007812.003906-.03125.003906-.058594.003906-.085938.007813-.105469.011719-.207031.015625-.308593.011719-.011719.011719-.011719.011719-.015626zm-109.933594 106.035157c-.222656-.011719-.445312-.015625-.667968-.015625-4.066407 0-7.726563 1.734375-10.285157 4.503906l-57.164062-24.621094 13.191406-23.796875c.03125-.058593.066406-.117187.101563-.175781.066406-.125.140624-.253906.210937-.378906.050781-.082032.097656-.160156.144531-.242188.0625-.105468.117188-.203125.179688-.304687.050781-.085938.101562-.171875.15625-.257813.058594-.097656.117187-.199218.179687-.296875.050781-.078125.097657-.160156.152344-.242187.0625-.097656.121094-.195313.183594-.292969.058593-.089844.113281-.175781.167969-.261719.0625-.089844.121093-.183594.179687-.273437.054687-.085938.113281-.167969.171875-.253907.0625-.09375.121094-.183593.183594-.273437.058594-.085937.117187-.167969.175781-.253906.0625-.089844.125-.179688.1875-.265625.058594-.085938.117187-.167969.179687-.253906.0625-.085938.125-.171876.1875-.257813s.125-.171875.191407-.257813c.058593-.082031.121093-.164062.183593-.246093.0625-.085938.128907-.171875.195313-.257813.0625-.082031.125-.164062.1875-.246094.066406-.085937.132813-.167968.199219-.253906.066406-.082031.132812-.167968.199218-.25.0625-.078125.128907-.160156.191407-.238281.066406-.082031.136719-.167969.207031-.25.066406-.078125.132812-.160156.195312-.238281.070313-.082032.140626-.160156.210938-.242188.066406-.078125.128906-.15625.199219-.234375.066406-.082031.136719-.160156.207031-.238281s.140625-.160156.210938-.242188c.070312-.078124.144531-.15625.214843-.230468.066407-.078125.132813-.152344.203125-.226563.101563-.109375.203125-.214843.300782-.324219.320312-.339843.648437-.671874.976562-1 .003906-.003906.007812-.007812.011719-.011718.148437-.144532.292969-.289063.445312-.433594.171875-.164062.34375-.328125.519531-.488281.054688-.050781.109376-.101563.160157-.148438.140625-.128906.28125-.257812.421875-.382812.050781-.042969.101562-.089844.148437-.132813.183594-.160156.367188-.320312.554688-.480468.039062-.035157.085937-.070313.125-.105469.152343-.128907.304687-.253907.457031-.382813.058594-.042968.113281-.09375.171875-.136718.160156-.128907.316406-.257813.476563-.382813.039062-.03125.074218-.0625.113281-.089844.195312-.152343.390625-.300781.585937-.449219.050782-.039062.105469-.078124.160156-.117187.148438-.113281.296876-.222656.449219-.332031.0625-.042969.125-.089844.1875-.136719.195313-.136719.386719-.273437.582031-.410156 1.003907-.691407 2.039063-1.34375 3.097657-1.941407.011719-.007812.019531-.011718.03125-.015624.1875-.105469.378906-.214844.570312-.316407.070313-.039062.140625-.078125.210938-.113281.132812-.074219.269531-.144531.40625-.21875.078125-.039062.152343-.078125.230469-.117188.136718-.070312.269531-.140624.40625-.207031.074218-.035156.144531-.074219.21875-.109375.203124-.101562.40625-.199218.617187-.300781 1.46875-.691406 2.980469-1.300781 4.527344-1.820313.214843-.070312.425781-.140624.640625-.207031.074218-.023437.148437-.046875.222656-.070312.148438-.042969.300781-.09375.453125-.136719.082031-.023438.164063-.050781.246094-.070312.15625-.046876.3125-.089844.464843-.132813.070313-.019531.136719-.039063.207032-.058594.226562-.0625.453125-.121093.679687-.179687.199219-.050782.398438-.101563.597657-.144532.582031-.140624 1.167968-.265624 1.753906-.378906.042968-.007812.089844-.015625.128906-.023437.152344-.03125.304688-.058594.460938-.085938.035156-.003906.074218-.011719.113281-.019531.371093-.066406.75-.125 1.125-.179688.046875-.007812.089843-.011718.136719-.019531.15625-.023437.308593-.042969.464843-.066406.035157-.003906.070313-.007813.105469-.011719.191406-.023437.382812-.046875.578125-.070312l35.46875-4.054688c.011719 0 .023437-.003906.03125-.007812.015625-.003906.027344-.003906.039063-.011719h.003906.011718c.039063-.011719.078126-.019531.121094-.027344.003906-.003906.007813-.003906.015625-.003906.003907 0 .003907-.003906.007813-.003906.054687-.011719.113281-.023438.175781-.039063.023437-.003906.042969-.011718.066406-.015625.003907 0 .007813 0 .015625-.003906.015625-.003906.03125-.003906.046875-.007813.027344-.007812.054688-.011718.082031-.019531.035157-.007812.070313-.011719.101563-.019531s.066406-.015625.097656-.023438c.089844-.015624.183594-.035156.28125-.054687.019531-.003906.039063-.007813.054688-.011719.066406-.015625.136719-.03125.207031-.042968.035156-.007813.070312-.015626.105469-.019532.011719-.003906.019531-.003906.03125-.007812.019531-.003906.035156-.003906.050781-.007813.027344-.007812.054688-.011719.085938-.015625 0 0 .003906-.003906.003906-.003906.023437-.003906.046875-.011719.070312-.015625.148438-.027344.304688-.054687.464844-.089844.054688-.007812.109375-.019531.164062-.03125.117188-.019531.234376-.042969.355469-.066406.046875-.007813.097657-.019531.144531-.027344.066407-.011719.132813-.027343.199219-.039062.082031-.015625.167969-.03125.257813-.046875.210937-.039063.433594-.082032.664062-.125.078125-.011719.15625-.027344.238282-.042969.066406-.011719.132812-.023437.199218-.039063.117188-.019531.230469-.039062.347656-.0625.003907-.003906.015626-.003906.023438-.003906.011719-.003906.027344-.007812.039062-.007812h.003907c.175781-.03125.351562-.066406.535156-.097656.050781-.011719.101563-.019532.148437-.027344.109376-.019532.21875-.042969.328126-.0625.152343-.027344.3125-.058594.472656-.085938.039062-.007812.078125-.011718.117187-.019531.261719-.050781.527344-.097656.800781-.148437.042969-.007813.082032-.015626.125-.019532.152344-.03125.304688-.058594.460938-.085937.078125-.011719.15625-.027344.238281-.042969.253907-.046875.511719-.09375.773438-.140625.007812-.003906.015625-.007813.027343-.007813.019532-.003906.039063-.007812.058594-.011718.011719 0 .023438-.003906.039063-.007813.109375-.019531.21875-.039062.332031-.058593.34375-.066407.699219-.128907 1.058594-.199219.03125-.003907.0625-.007813.089844-.015625.285156-.050782.574218-.105469.867187-.160156zm0 0" fill="#382b73"/><path d="m279.449219 377.355469c-.003907-.09375-.011719-.191407-.019531-.285157-.003907-.007812-.003907-.015624-.003907-.027343-.011719-.089844-.019531-.179688-.035156-.269531 0-.007813 0-.019532-.003906-.03125-.011719-.085938-.027344-.167969-.042969-.253907-.003906-.015625-.007812-.03125-.011719-.046875-.015625-.078125-.035156-.15625-.054687-.230468-.003906-.023438-.007813-.046876-.015625-.066407-.019531-.074219-.039063-.144531-.0625-.214843-.003907-.027344-.011719-.046876-.019531-.070313-.023438-.070313-.046876-.136719-.070313-.203125-.007813-.027344-.019531-.054688-.03125-.082031-.023437-.0625-.046875-.125-.070313-.1875-.015624-.03125-.027343-.0625-.042968-.09375-.023438-.054688-.050782-.109375-.074219-.167969-.015625-.035156-.035156-.070312-.050781-.105469-.027344-.046875-.050782-.09375-.074219-.140625-.023437-.042968-.042969-.082031-.066406-.125-.015625-.03125-.035157-.058594-.050781-.089844-.035157-.054687-.070313-.113281-.101563-.167968-.011719-.019532-.027344-.039063-.039063-.058594-.042968-.066406-.085937-.128906-.128906-.191406-.007812-.011719-.019531-.023438-.027344-.035156-.050781-.070313-.097656-.140626-.152343-.203126-.003907-.011718-.011719-.015624-.015625-.023437-.058594-.074219-.117188-.140625-.171875-.210937-.003907-.003907-.007813-.007813-.015625-.011719-.203125-.238281-.425782-.457031-.660156-.65625v-3.65625h-.011719c-.191407-3.800781-3.332031-6.820313-7.175781-6.820313h-13.628907c-3.847656 0-6.988281 3.023438-7.175781 6.820313h-.011719v3.65625c-.089843.074219-.179687.152343-.261719.234375-.003906 0-.003906.003906-.007812.003906-.066406.0625-.132812.128906-.195312.195312-.003907.003907-.007813.011719-.011719.015626-.0625.0625-.125.128906-.179688.199218-.011719.007813-.015625.015625-.023437.023438-.054688.066406-.109375.128906-.164063.199218-.007812.011719-.015625.019532-.023437.035157-.050782.058593-.097656.125-.144532.1875-.011718.019531-.023437.035156-.035156.054687-.039062.054688-.078125.113282-.113281.171875-.019531.023438-.035156.050781-.050781.078125-.03125.046875-.0625.097656-.089844.144532-.023438.039062-.042969.074218-.0625.113281-.019531.03125-.039062.066406-.058594.105469-.027344.050781-.054687.105468-.082031.160156-.015625.03125-.03125.066406-.046875.097656-.027344.058594-.054688.117188-.082031.175781-.011719.027344-.023438.054688-.035157.082031-.027343.066407-.050781.132813-.078124.195313-.011719.027344-.019532.050781-.027344.074219-.023438.070312-.046875.140625-.070313.210937-.007812.019531-.011719.039063-.019531.0625-.019531.070313-.042969.148438-.0625.222657-.007812.019531-.011719.039062-.015625.058593-.019531.078125-.039063.160157-.054687.242188 0 .011719-.007813.023437-.007813.035156-.019531.089844-.035156.175781-.046875.265625 0 .007812 0 .015625-.003906.019531-.011719.09375-.023438.1875-.035156.28125 0 .003907 0 .011719-.003907.015625-.019531.195313-.027343.394532-.027343.597656v1.125c0 .628907.097656 1.246094.285156 1.832032.035156.097656.066406.195312.105468.289062.328126.863282.855469 1.648438 1.550782 2.28125l.179687.164063v6.648437c0 .988282.804688 1.792969 1.796875 1.792969h.203125c-1.105469 0-2 .898437-2 2v6.75c0 .242187.042969.476563.121094.6875.046875.125.101563.242187.167969.351563.035156.054687.070312.109374.109375.160156.039062.050781.078125.101562.121093.148437.042969.046875.089844.089844.136719.136719.257813.234375.582031.40625.941407.476562.128906.027344.265624.039063.40625.039063h24c.136718 0 .273437-.011719.402343-.039063.359375-.074218.679688-.242187.941407-.476562.046874-.042969.09375-.089844.136718-.136719.042969-.046875.082032-.097656.121094-.148437.039062-.050782.074219-.105469.109375-.160156.066406-.109376.125-.226563.167969-.351563.078125-.210937.121094-.445313.121094-.6875v-6.75c0-1.101563-.894532-2-2-2h.203124c.15625 0 .308594-.019531.449219-.054687.574219-.148438 1.039063-.570313 1.238281-1.121094.019532-.054688.039063-.113282.050782-.167969.035156-.144531.058594-.296875.058594-.449219v-6.644531l.179687-.164063c.078125-.070312.148437-.144531.222656-.21875.148438-.148437.285157-.304687.414063-.464843.195312-.242188.367187-.496094.519531-.765625.253906-.445313.449219-.921875.582031-1.417969.132813-.496094.203125-1.011719.203125-1.535156v-1.128907c0-.101562-.003906-.199218-.007812-.300781 0-.003906 0-.007812 0-.007812zm0 0" fill="#382b73"/><path d="m263.339844 375.464844c-4.417969 0-8-3.582032-8-8v-48.75c0-4.417969 3.582031-8 8-8 4.417968 0 8 3.582031 8 8v48.75c0 4.417968-3.585938 8-8 8zm0 0" fill="#009add"/><path d="m249.335938 355.449219v20.554687c0 .988282.804687 1.792969 1.796874 1.792969h24.40625c.992188 0 1.796876-.804687 1.796876-1.792969v-20.554687zm0 0" fill="#e7ad27"/><path d="m275.335938 388.546875h-24c-1.105469 0-2-.894531-2-2v-6.75c0-1.101563.894531-2 2-2h24c1.105468 0 2 .898437 2 2v6.75c0 1.105469-.894532 2-2 2zm0 0" fill="#f7cb15"/><path d="m275.335938 383.878906h-24c-1.105469 0-2-.894531-2-2v4.667969c0 1.101563.894531 2 2 2h24c1.105468 0 2-.898437 2-2v-4.667969c0 1.105469-.894532 2-2 2zm0 0" fill="#e7ad27"/><path d="m253.175781 357.703125c1.027344 0 1.863281.835937 1.863281 1.863281v12.542969c0 .9375-1.117187 1.429687-1.808593.796875l-4.074219-3.714844c-1.234375-1.128906-1.941406-2.726562-1.941406-4.402344v-1.125c0-3.292968 2.667968-5.960937 5.960937-5.960937zm0 0" fill="#009add"/><path d="m254.5625 371.03125-4.074219-3.714844c-1.234375-1.128906-1.941406-2.726562-1.941406-4.402344v-1.125c0-.875.191406-1.703124.527344-2.449218-1.144531 1.085937-1.859375 2.621094-1.859375 4.324218v1.125c0 1.675782.703125 3.273438 1.941406 4.402344l4.070312 3.714844c.695313.632812 1.808594.140625 1.808594-.796875v-.820313c-.164062-.042968-.328125-.125-.472656-.257812zm0 0" fill="#136da0"/><path d="m263.335938 348.628906h-6.816407c-3.96875 0-7.183593 3.21875-7.183593 7.183594v.957031l3.308593 3.019531c1.238281 1.128907 1.941407 2.726563 1.941407 4.402344v1.125c0 3.050782-2.292969 5.566406-5.25 5.914063v4.769531c0 .992188.804687 1.796875 1.796874 1.796875h12.203126zm0 0" fill="#fede3a"/><path d="m251.648438 376.003906v-.125c0-2.34375 1.199218-4.445312 3.027343-5.917968 1.355469-1.089844 2.222657-2.765626 2.222657-4.644532v-1.125c0-1.675781-.703126-3.269531-1.941407-4.402344l-2.601562-2.375c-.449219-.410156-.703125-.988281-.703125-1.597656 0-3.96875 3.214844-7.183594 7.183594-7.183594h-2.3125c-3.96875 0-7.183594 3.214844-7.183594 7.183594v.953125l3.308594 3.019531c1.238281 1.132813 1.941406 2.726563 1.941406 4.402344v1.125c0 3.050782-2.292969 5.566406-5.25 5.917969v4.769531c0 .988282.804687 1.792969 1.796875 1.792969h2.3125c-.996094 0-1.800781-.804687-1.800781-1.792969zm0 0" fill="#f7cb15"/><path d="m273.496094 357.703125c-1.027344 0-1.859375.835937-1.859375 1.863281v12.542969c0 .9375 1.113281 1.429687 1.808593.796875l4.070313-3.714844c1.238281-1.128906 1.941406-2.726562 1.941406-4.402344v-1.125c0-3.292968-2.667969-5.960937-5.960937-5.960937zm0 0" fill="#009add"/><path d="m272.113281 371.03125 4.070313-3.714844c1.238281-1.128906 1.941406-2.726562 1.941406-4.402344v-1.125c0-.875-.1875-1.703124-.523438-2.449218 1.140626 1.085937 1.859376 2.621094 1.859376 4.324218v1.125c0 1.675782-.707032 3.273438-1.941407 4.402344l-4.074219 3.714844c-.691406.632812-1.808593.140625-1.808593-.796875v-.820313c.167969-.042968.328125-.125.476562-.257812zm0 0" fill="#136da0"/><path d="m263.335938 348.628906h6.816406c3.96875 0 7.183594 3.21875 7.183594 7.183594v.957031l-3.308594 3.019531c-1.238282 1.128907-1.941406 2.726563-1.941406 4.402344v1.125c0 3.050782 2.292968 5.566406 5.25 5.914063v4.769531c0 .992188-.804688 1.796875-1.796876 1.796875h-12.203124zm0 0" fill="#fede3a"/><path d="m275.023438 376.003906v-.125c0-2.34375-1.195313-4.445312-3.023438-5.917968-1.359375-1.089844-2.226562-2.765626-2.226562-4.644532v-1.125c0-1.675781.703124-3.269531 1.941406-4.402344l2.601562-2.375c.453125-.410156.707032-.988281.707032-1.597656 0-3.96875-3.21875-7.183594-7.183594-7.183594h2.308594c3.96875 0 7.1875 3.214844 7.1875 7.183594v.953125l-3.308594 3.019531c-1.238282 1.132813-1.941406 2.726563-1.941406 4.402344v1.125c0 3.050782 2.292968 5.566406 5.25 5.917969v4.769531c0 .988282-.804688 1.792969-1.796876 1.792969h-2.3125c.992188 0 1.796876-.804687 1.796876-1.792969zm0 0" fill="#f7cb15"/><path d="m271.246094 374.585938h-15.816406c-.472657 0-.855469-.382813-.855469-.851563s.382812-.851563.855469-.851563h15.816406c.46875 0 .851562.382813.851562.851563s-.382812.851563-.851562.851563zm0 0" fill="#f7cb15"/><path d="m271.246094 354.398438h-15.816406c-.472657 0-.855469-.378907-.855469-.851563 0-.46875.382812-.851563.855469-.851563h15.816406c.46875 0 .851562.382813.851562.851563 0 .472656-.382812.851563-.851562.851563zm0 0" fill="#f7cb15"/><path d="m266.269531 330.125c-1.058593 0-2.128906-.210938-3.160156-.65625l-99.433594-42.824219c-4.058593-1.75-5.933593-6.453125-4.1875-10.511719 1.75-4.058593 6.457031-5.933593 10.515625-4.183593l99.433594 42.824219c4.058594 1.75 5.929688 6.453124 4.183594 10.511718-1.304688 3.027344-4.253906 4.839844-7.351563 4.839844zm0 0" fill="#009add"/><path d="m268.519531 327.75c-1.058593 0-2.128906-.210938-3.160156-.652344l-99.433594-42.828125c-4.058593-1.746093-5.933593-6.453125-4.1875-10.511719.15625-.363281.335938-.707031.539063-1.035156-1.1875.824219-2.171875 1.984375-2.789063 3.410156-1.746093 4.058594.128907 8.765626 4.1875 10.511719l99.433594 42.828125c1.03125.441406 2.101563.652344 3.160156.652344 2.726563 0 5.335938-1.402344 6.8125-3.804688-1.335937.921876-2.929687 1.429688-4.5625 1.429688zm0 0" fill="#136da0"/><path d="m266.273438 330.125c-.820313 0-1.652344-.128906-2.476563-.394531-4.199219-1.367188-6.5-5.878907-5.132813-10.082031l33.234376-102.160157c1.367187-4.203125 5.882812-6.5 10.082031-5.132812 4.203125 1.367187 6.5 5.878906 5.132812 10.082031l-33.234375 102.160156c-1.097656 3.378906-4.234375 5.527344-7.605468 5.527344zm0 0" fill="#009add"/><path d="m301.976562 212.355469c-1.355468-.441407-2.75-.5-4.054687-.234375.296875.0625.59375.140625.890625.234375 4.203125 1.367187 6.5 5.878906 5.132812 10.082031l-33.234374 102.160156c-.921876 2.84375-3.285157 4.8125-6.019532 5.367188.527344.109375 1.054688.160156 1.582032.160156 3.371093 0 6.503906-2.148438 7.605468-5.527344l33.230469-102.160156c1.367187-4.199219-.929687-8.714844-5.132813-10.082031zm0 0" fill="#136da0"/><path d="m263.335938 334.214844c-7.730469 0-14-6.269532-14-14v-3c0-7.734375 6.269531-14 14-14 7.730468 0 14 6.265625 14 14v3c0 7.730468-6.269532 14-14 14zm0 0" fill="#fede3a"/><path d="m263.335938 330.832031c-7.667969 0-13.894532-6.167969-13.996094-13.808593 0 .0625-.003906.125-.003906.1875v3c0 7.734374 6.269531 14 14 14 7.730468 0 14-6.265626 14-14v-3c0-.0625 0-.125 0-.1875-.105469 7.644531-6.332032 13.808593-14 13.808593zm0 0" fill="#e7ad27"/><path d="m269.949219 320.722656h-13.222657c-1.488281 0-2.695312-1.207031-2.695312-2.695312 0-1.488282 1.207031-2.695313 2.695312-2.695313h13.222657c1.488281 0 2.695312 1.207031 2.695312 2.695313-.003906 1.492187-1.207031 2.695312-2.695312 2.695312zm0 0" fill="#e7ad27"/><path d="m268.648438 311.289062h-10.621094c-2.207032 0-3.996094 1.785157-3.996094 3.996094v2.742188h18.609375v-2.742188c0-2.207031-1.785156-3.996094-3.992187-3.996094zm0 0" fill="#1caee4"/><path d="m154.023438 127.636719c-34.519532 14.328125-52.425782 39.1875-50.1875 71.988281.398437 5.855469 1.476562 11.644531 3.214843 17.25l16.109375 51.929688c2.292969 7.398437 7.898438 13.308593 15.164063 15.988281l40.574219 14.964843c3.703124 1.363282 7.847656-.175781 9.765624-3.628906l20.414063-36.828125c6.4375-11.609375 18.085937-19.398437 31.28125-20.90625l35.46875-4.054687c5.578125-1.394532 63.738281-10.242188 90.507813-24.042969 3.976562-2.054687 6.027343-5.4375 6.988281-9.039063 2.035156-7.617187-1.023438-15.703124-7.179688-20.632812l-49.617187-39.765625c-10.664063-8.546875-22.519532-15.585937-35.378906-20.214844-9.464844-3.410156-19.332032-5.675781-29.410157-6.664062-25.175781-2.472657-63.195312-.675781-97.714843 13.65625zm0 0" fill="#1caee4"/><g fill="#009add"><path d="m157.710938 284.792969c-7.265626-2.679688-12.871094-8.589844-15.164063-15.988281l-17.289063-55.738282c-1.351562-4.351562-2.039062-8.882812-2.039062-13.441406-2.238281-32.800781 15.671875-57.660156 50.191406-71.988281 22.777344-9.453125 47.078125-13.453125 68.210938-14.371094-24.601563-1.105469-57.4375 1.851563-87.597656 14.371094-34.519532 14.328125-52.425782 39.1875-50.1875 71.988281 0 4.558594.683593 9.089844 2.035156 13.441406l17.289062 55.738282c2.292969 7.398437 7.898438 13.308593 15.164063 15.988281l40.644531 14.988281c3.664062 1.351562 7.765625-.171875 9.65625-3.585938zm0 0"/><path d="m289.804688 231.703125-185.574219-45.714844c-.035157.269531-.070313.539063-.097657.808594-.007812.0625-.011718.117187-.019531.179687-.023437.207032-.046875.414063-.070312.625-.007813.082032-.015625.164063-.023438.246094-.015625.183594-.035156.367188-.054687.550782-.007813.09375-.015625.195312-.023438.289062-.015625.167969-.03125.339844-.046875.507812-.007812.105469-.015625.207032-.023437.316407-.011719.167969-.023438.339843-.035156.507812-.007813.097657-.015626.191407-.019532.289063-.011718.175781-.023437.347656-.03125.527344-.007812.097656-.011718.199218-.015625.296874-.011719.175782-.019531.351563-.027343.527344-.003907.09375-.007813.1875-.015626.285156-.007812.234376-.015624.464844-.023437.699219 0 .039063-.003906.070313-.003906.105469-.007813.273438-.015625.542969-.019531.816406-.003907.070313-.003907.140625-.003907.214844 0 .195312-.003906.390625-.003906.585938v.316406.507812.320313c.003906.164062.003906.328125.007813.496093 0 .109376.003906.21875.003906.328126.003906.164062.007812.328124.011718.492187.003907.113281.007813.222656.011719.335937.003907.171876.011719.339844.019531.511719.003907.097657.007813.199219.011719.296875.007813.191406.019531.378906.027344.570313.003906.085937.007813.171875.015625.257812.015625.273438.03125.546875.046875.820313.402344 5.855468 1.480469 11.644531 3.21875 17.246094l16.109375 51.933593c2.292969 7.398438 7.898438 13.308594 15.164062 15.988281l40.574219 14.964844c3.703125 1.363282 7.847657-.175781 9.765625-3.628906l20.414063-36.828125c6.4375-11.609375 18.085937-19.398437 31.28125-20.90625l35.46875-4.054687c1.484375-.363282 6.664062-1.261719 13.980469-2.632813zm0 0"/><path d="m289.804688 231.703125-185.574219-45.714844c-.035157.269531-.070313.539063-.097657.808594-.007812.0625-.011718.117187-.019531.179687-.023437.207032-.046875.414063-.070312.625-.007813.082032-.015625.164063-.023438.246094-.015625.183594-.035156.367188-.054687.550782-.007813.09375-.015625.195312-.023438.289062-.015625.167969-.03125.339844-.046875.507812-.007812.105469-.015625.207032-.023437.316407-.011719.167969-.023438.339843-.035156.507812-.007813.097657-.015626.191407-.019532.289063-.011718.175781-.023437.347656-.03125.527344-.007812.097656-.011718.199218-.015625.296874-.011719.175782-.019531.351563-.027343.527344-.003907.09375-.007813.1875-.015626.285156-.007812.234376-.015624.464844-.023437.699219 0 .039063-.003906.070313-.003906.105469-.007813.273438-.015625.542969-.019531.816406-.003907.070313-.003907.140625-.003907.214844 0 .195312-.003906.390625-.003906.585938v.316406.507812.320313c.003906.164062.003906.328125.007813.496093 0 .109376.003906.21875.003906.328126.003906.164062.007812.328124.011718.492187.003907.113281.007813.222656.011719.335937.003907.171876.011719.339844.019531.511719.003907.097657.007813.199219.011719.296875.007813.191406.019531.378906.027344.570313.003906.085937.007813.171875.015625.257812.015625.273438.03125.546875.046875.820313.402344 5.855468 1.480469 11.644531 3.21875 17.246094l16.109375 51.933593c2.292969 7.398438 7.898438 13.308594 15.164062 15.988281l40.574219 14.964844c3.703125 1.363282 7.847657-.175781 9.765625-3.628906l20.414063-36.828125c6.4375-11.609375 18.085937-19.398437 31.28125-20.90625l35.46875-4.054687c1.484375-.363282 6.664062-1.261719 13.980469-2.632813zm0 0"/></g><path d="m119.402344 256.695312 27.453125 11.113282c2.988281 1.210937 6.398437-.113282 7.789062-3.019532l2.53125-5.292968c1.328125-2.777344.378907-6.113282-2.21875-7.769532l-46.261719-29.550781zm0 0" fill="#1caee4"/><path d="m154.957031 251.726562-46.261719-29.550781 6.109376 19.6875 36.402343 23.253907c.734375.472656 1.339844 1.074218 1.796875 1.761718.675782-.554687 1.238282-1.257812 1.640625-2.09375l2.53125-5.292968c1.328125-2.773438.378907-6.109376-2.21875-7.765626zm0 0" fill="#009add"/><path d="m154.957031 251.726562-46.261719-29.550781 3.046876 9.820313 40.539062 25.898437c2.09375 1.335938 3.117188 3.765625 2.734375 6.117188l2.160156-4.515625c1.328125-2.777344.378907-6.113282-2.21875-7.769532zm0 0" fill="#136da0"/><path d="m300.097656 179.222656-65.101562 9.582032c-1.101563.160156-2.21875.097656-3.28125-.199219l-10.617188-2.921875-7.402344-2.019532-52.699218-14.460937c-6.878906-1.878906-8.058594-11.160156-1.839844-14.660156 18.257812-10.257813 49.917969-24.257813 81.019531-19.917969 6.398438.898438 12.441407 2.320312 18.101563 4.117188.097656.042968.21875.0625.320312.101562 1.019532.320312 2.019532.640625 3 1 .238282.082031.476563.160156.71875.261719 1 .359375 1.980469.71875 2.960938 1.097656 17.257812 6.679687 30.480468 16.5 39 24.160156 5.039062 4.539063 2.519531 12.878907-4.179688 13.859375zm0 0" fill="#27c1e6"/><path d="m300.097656 179.222656-65.101562 9.582032c-1.101563.160156-2.21875.097656-3.28125-.199219l-10.617188-2.921875-7.402344-2.019532-52.699218-14.460937c-6.878906-1.878906-8.058594-11.160156-1.839844-14.660156 18.257812-10.257813 49.917969-24.257813 81.019531-19.917969 6.398438.898438 12.441407 2.320312 18.101563 4.117188.097656.042968.21875.0625.320312.101562 1.019532.320312 2.019532.640625 3 1 .238282.082031.476563.160156.71875.261719 1 .359375 1.980469.71875 2.960938 1.097656 17.257812 6.679687 30.480468 16.5 39 24.160156 5.039062 4.539063 2.519531 12.878907-4.179688 13.859375zm0 0" fill="#27c1e6"/><path d="m304.277344 165.363281c-8.519532-7.660156-21.742188-17.480469-39-24.160156-.980469-.378906-1.960938-.738281-2.960938-1.097656-.242187-.101563-.480468-.179688-.71875-.261719-.980468-.359375-1.980468-.679688-3-1-.101562-.039062-.222656-.058594-.320312-.101562-5.660156-1.796876-11.703125-3.21875-18.101563-4.117188-31.101562-4.339844-62.761719 9.660156-81.019531 19.917969-6.21875 3.5-5.039062 12.78125 1.839844 14.660156l5.84375 1.605469c18.484375-8.773438 43.925781-17.199219 69.003906-13.699219 6.398438.902344 12.4375 2.320313 18.097656 4.121094.101563.039062.21875.058593.320313.097656 1.019531.320313 2.019531.640625 3 1 .242187.082031.480469.160156.71875.261719 1 .359375 1.980469.71875 2.960937 1.101562 12.109375 4.683594 22.226563 10.914063 30.128906 16.859375l9.023438-1.328125c6.703125-.980468 9.222656-9.320312 4.183594-13.859375zm0 0" fill="#009add"/><path d="m301.796875 178.785156c-.402344-.679687-.921875-1.320312-1.582031-1.921875-9.398438-8.4375-24.480469-19.519531-44.417969-26.121093-2.359375-.777344-4.800781-1.519532-7.300781-2.15625-3.960938-1.023438-8.101563-1.863282-12.398438-2.460938-30.5-4.261719-61.5625 9.140625-79.960937 19.339844-2-3.582032-1.179688-8.5625 3.019531-10.921875 18.257812-10.257813 49.917969-24.257813 81.019531-19.917969 6.398438.898438 12.441407 2.320312 18.101563 4.117188 2.398437.742187 4.738281 1.582031 7 2.460937 17.257812 6.679687 30.480468 16.5 39 24.160156 4.597656 4.121094 2.917968 11.402344-2.480469 13.421875zm0 0" fill="#136da0"/><path d="m202.066406 195.363281-25.847656-9.867187 67.179688-67.648438 25.847656 9.867188zm0 0" fill="#1caee4"/><path d="m265.277344 141.203125-9.480469 9.539063-34.699219 34.941406-7.402344-2.019532 34.800782-35.078124 9.78125-9.84375c.097656.042968.21875.0625.320312.101562 1.019532.320312 2.019532.640625 3 1 .238282.082031.476563.160156.71875.261719 1 .359375 1.980469.71875 2.960938 1.097656zm0 0" fill="#136da0"/><path d="m373.34375 201.199219c.027344-.109375.054688-.21875.082031-.324219.011719-.046875.019531-.089844.03125-.136719.019531-.082031.039063-.164062.058594-.25.011719-.050781.023437-.105469.03125-.160156.015625-.078125.035156-.15625.050781-.234375.007813-.054688.019532-.109375.027344-.160156.015625-.078125.03125-.15625.042969-.234375.011719-.050781.019531-.101563.027343-.15625.015626-.082031.027344-.160157.039063-.242188.007813-.050781.015625-.101562.023437-.152343.015626-.097657.027344-.191407.039063-.289063.003906-.03125.007813-.0625.015625-.09375.015625-.132813.03125-.257813.042969-.390625.003906-.035156.007812-.074219.011719-.109375.007812-.09375.015624-.1875.023437-.28125.003906-.046875.007813-.097656.011719-.144531.003906-.082032.011718-.164063.015625-.25.003906-.050782.007812-.097656.007812-.148438.003907-.082031.007813-.164062.011719-.246094.003906-.050781.003906-.101562.003906-.152343.003906-.082031.003906-.164063.007813-.246094 0-.046875 0-.09375 0-.140625 0-.097656 0-.195312 0-.292969 0-.03125 0-.0625 0-.09375-.003907-.261719-.011719-.523437-.023438-.785156-.003906-.039063-.003906-.078125-.007812-.113281-.007813-.09375-.011719-.1875-.019531-.28125-.003907-.039063-.003907-.078125-.007813-.117188-.007813-.09375-.015625-.183594-.023437-.277344-.003907-.042968-.007813-.082031-.011719-.128906-.007813-.085937-.019531-.171875-.03125-.257812-.003907-.042969-.007813-.089844-.015625-.132813-.007813-.089843-.019532-.179687-.03125-.269531-.007813-.039062-.011719-.078125-.015625-.117188-.019531-.113281-.035157-.222656-.050781-.335937-.003907-.015625-.003907-.03125-.007813-.046875-.019531-.128906-.042969-.261719-.066406-.390625-.003907-.015625-.007813-.03125-.007813-.042969-.023437-.117187-.042968-.234375-.070312-.351562-.003906-.023438-.007813-.050782-.015625-.074219-.019531-.101563-.039063-.199219-.066407-.300781-.007812-.039063-.015624-.078125-.023437-.117188-.019531-.085937-.042969-.175781-.066406-.261718-.007813-.042969-.019531-.078126-.027344-.121094-.023437-.097656-.050781-.191406-.078125-.289063-.007812-.027343-.011719-.054687-.019531-.082031-.035157-.109375-.066407-.222656-.097657-.335938-.003906-.015624-.007812-.027343-.011718-.042968-.078125-.257813-.160156-.515625-.246094-.773438-.003906-.007812-.003906-.015625-.007812-.027344-.039063-.113281-.078126-.226562-.117188-.335937-.011719-.03125-.019531-.058594-.03125-.082031-.035156-.097656-.070312-.195313-.109375-.292969-.011719-.027344-.019531-.054687-.03125-.085937-.039063-.09375-.074219-.1875-.117187-.285157-.011719-.027343-.023438-.058593-.035157-.085937-.042969-.101563-.082031-.203125-.125-.300782-.007812-.019531-.015625-.039062-.023437-.058593-.050782-.121094-.105469-.242188-.164063-.363281-34.03125 12.050781-83.402343 19.644531-88.910156 21.019531l-41.425781 4.734375c-15.40625 1.761718-29.015625 10.855468-36.53125 24.417968l-24.402344 44.023438c-1.914062 3.453125-6.0625 4.992188-9.765625 3.625l-48.078125-17.734375.128906.414063c2.15625 6.957031 7.242188 12.59375 13.882813 15.46875 2.34375.773437 4.261719 1.460937 5.433593 2.046874l36.421876 13.433594c3.703124 1.367188 7.847656-.175781 9.765624-3.628906l20.414063-36.824219c6.4375-11.613281 18.085937-19.402343 31.28125-20.910156l35.46875-4.050781c.675781-.167969 2.121094-.449219 4.191406-.832032.066407-.011718.132813-.023437.199219-.039062.273438-.046875.554688-.101562.847656-.15625.070313-.011719.144532-.023438.21875-.039062.371094-.066407.757813-.140626 1.160156-.210938.082032-.015625.164063-.03125.242188-.042969.652344-.121093 1.34375-.246093 2.070312-.382812.179688-.03125.363282-.066407.546876-.101563.1875-.03125.375-.066406.566406-.101562.1875-.035156.382812-.070313.574218-.109375.195313-.035157.390626-.070313.589844-.105469.296875-.054688.597656-.109375.90625-.167969.203125-.039062.410156-.078125.617188-.117187.101562-.019532.207031-.039063.3125-.058594.210937-.039062.421875-.078125.636718-.117188.105469-.019531.214844-.039062.320313-.058593.21875-.042969.433594-.082031.652344-.125.113281-.019531.222656-.039063.332031-.058594.21875-.042969.445312-.085937.667969-.128906.335937-.0625.675781-.125 1.023437-.191407.226563-.046874.460938-.089843.691406-.132812.582032-.113281 1.175782-.226562 1.777344-.34375.242188-.042969.484375-.09375.730469-.140625 1.707031-.332031 3.488281-.683594 5.332031-1.054687.261719-.050782.527344-.105469.792969-.160157.132813-.023437.265625-.054687.398437-.078125.265626-.054687.535157-.109375.804688-.164062.539062-.109375 1.082031-.222656 1.628906-.335938.273438-.054687.546875-.113281.824219-.167968.277344-.058594.550781-.117188.828125-.175782.28125-.058594.558594-.117187.835938-.175781.976562-.207031 1.96875-.414063 2.964843-.632813.285157-.0625.574219-.121093.859375-.183593.144532-.035157.289063-.0625.429688-.09375.289062-.0625.574218-.128907.867187-.191407.433594-.097656.867188-.191406 1.304688-.289062.292969-.0625.582031-.128906.875-.195312.289062-.066407.582031-.132813.875-.199219.589843-.128907 1.179687-.265625 1.769531-.402344.144531-.03125.292969-.066406.441406-.101563.296875-.066406.59375-.132812.890625-.203124.59375-.140626 1.1875-.277344 1.78125-.417969.300781-.070313.597657-.140625.898438-.210938.296875-.070312.597656-.140625.898437-.214843.449219-.109376.894532-.214844 1.347656-.324219.296876-.070313.597657-.144531.898438-.21875s.601562-.148438.902344-.222657c.601562-.148437 1.203125-.296874 1.804687-.449218.300781-.078125.601563-.152344.902344-.230469.601563-.148437 1.203125-.304687 1.800781-.460937.300782-.078126.605469-.15625.902344-.234376.453125-.117187.902344-.234374 1.351562-.355468.75-.199219 1.496094-.398438 2.242188-.605469.152344-.039063.300781-.082031.449219-.121094.449219-.121093.894531-.246093 1.339843-.367187.296876-.082032.59375-.167969.890626-.25.296874-.085938.59375-.167969.886718-.253906.148438-.042969.296875-.082032.441406-.125.296876-.085938.59375-.171876.886719-.253907.441407-.128906.882813-.257812 1.320313-.386719.4375-.128906.875-.261718 1.3125-.390624.289062-.085938.582031-.171876.867187-.261719 2.894531-.878907 5.722657-1.792969 8.441407-2.738281.136718-.046876.273437-.09375.40625-.140626.8125-.285156 1.617187-.574218 2.410156-.863281.261718-.101562.527344-.195312.789062-.292969.261719-.097656.519532-.195312.777344-.292968.257812-.101563.515625-.199219.773438-.296875.253906-.097657.511718-.199219.761718-.300781.128906-.046876.253906-.097657.382813-.148438.503906-.199219 1.003906-.398438 1.496093-.601562.492188-.203126.980469-.40625 1.457032-.609376.242187-.101562.480468-.203124.71875-.308593.472656-.207031.941406-.414063 1.402344-.621094.460937-.210937.917968-.417969 1.363281-.628906.898437-.421875 1.761719-.847657 2.601562-1.28125 2.238281-1.152344 3.863281-2.730469 5.03125-4.527344.90625-1.398437 1.535157-2.933594 1.957031-4.507813.011719-.019531.015626-.039062.023438-.058593zm0 0" fill="#fede3a"/><path d="m275.902344 234.324219c.023437-.007813.046875-.011719.070312-.015625.011719-.003906.023438-.007813.035156-.007813.015626-.003906.027344-.007812.042969-.011719.011719-.003906.023438-.003906.039063-.007812s.027344-.007812.042968-.011719c.015626-.003906.027344-.003906.042969-.007812.046875-.011719.101563-.023438.152344-.035157.109375-.023437.226563-.046874.351563-.074218.230468-.046875.488281-.101563.773437-.15625.003906 0 .007813-.003906.011719-.003906.042968-.007813.085937-.015626.128906-.023438.015625 0 .027344-.003906.042969-.007812.167969-.03125.34375-.066407.527343-.101563.117188-.019531.234376-.042969.355469-.066406.277344-.054688.570313-.105469.875-.164063.0625-.011718.128907-.023437.191407-.035156.035156-.007812.070312-.015625.109374-.023438.296876-.054687.609376-.113281.9375-.171874.015626-.003907.03125-.007813.046876-.011719.140624-.023438.285156-.050781.433593-.078125.058594-.011719.117188-.023438.175781-.03125.371094-.070313.757813-.140625 1.160157-.214844.082031-.011719.164062-.027344.242187-.042969.621094-.113281 1.28125-.234375 1.96875-.363281.074219-.011719.144532-.023438.21875-.039062.144532-.023438.285156-.050782.429688-.078126.1875-.035156.375-.070312.566406-.105468.1875-.035156.382812-.070313.574219-.105469.195312-.035156.390625-.070313.589843-.109375.296876-.054688.597657-.109375.90625-.167969.203126-.035156.410157-.074219.617188-.113281.101562-.023438.207031-.039062.3125-.058594.210938-.039062.421875-.078125.636719-.117187.097656-.019531.199219-.039063.296875-.058594l-59.816406-14.734375c-10.386719 4.003906-19.191407 11.554688-24.710938 21.511719l-24.40625 44.019531c-1.914062 3.453125-6.0625 4.992188-9.765625 3.625l-48.078125-17.734375.128906.414063c.035156.113281.070313.226562.109375.335937.011719.039063.023438.078125.035157.113281.023437.070313.050781.140625.074218.214844.015625.046875.03125.09375.050782.140625.023437.070313.042968.132813.066406.203125.015625.035156.027344.074219.042968.109375.023438.070313.050782.144531.078126.214844.015624.046875.035156.089843.054687.136719.023437.0625.046875.125.070313.1875.019531.050781.039062.101562.058593.152343.023438.054688.046875.109375.066407.164063.023437.058594.046874.113281.070312.167968.023438.050782.042969.101563.066406.152344.023438.054688.046875.113282.070313.167969.023437.054687.046875.109375.070312.164063.019531.046874.042969.09375.0625.140624.027344.058594.054688.121094.082031.175782.019532.050781.046876.105468.070313.152344.023437.054687.046875.109374.074219.160156.023437.050781.046875.101562.070312.152344.027344.054687.050782.109374.082032.164062.023437.050781.046874.097656.070312.148438.027344.050781.050781.105468.078125.15625.027344.050781.054687.105468.082031.160156.023438.046875.046875.09375.070313.136718.027343.054688.058593.109376.089843.164063.027344.050781.050782.097656.078126.144531.03125.054688.058593.109375.085937.164063.023437.039062.046875.082031.070313.121093.03125.0625.066406.121094.097656.179688.035156.058594.070312.117188.101562.175781.054688.09375.109375.183594.164063.277344.027343.042969.054687.089844.078125.132813.035156.054687.070312.109374.105468.167968.027344.039063.050782.082032.078126.121094.03125.054688.066406.101562.097656.15625.03125.042969.058594.089844.089844.136719.03125.050781.066406.105469.101562.15625.027344.042969.054688.085937.082031.128906.035157.054687.074219.109375.109375.164063.027344.039062.054688.082031.082032.121093.039062.054688.078124.113281.117187.164063.023437.039062.050781.074218.078125.113281.039062.054687.082031.113281.121094.171875.023437.035156.050781.070312.078125.105469.042969.058593.082031.113281.125.171875.027343.03125.050781.066406.074219.101562.042968.054688.082031.109375.125.164063.03125.039062.058593.078125.089843.117187.039063.050782.078125.101563.117188.152344.035156.039062.0625.078125.097656.117188.039063.050781.074219.101562.117187.148437.027344.039063.0625.078125.089844.113281.046875.054688.085938.105469.132813.160156.023437.027344.046875.0625.074219.089844.046874.058594.097656.113282.144531.171875.023437.027344.046875.058594.070312.085938.050781.058593.101563.117187.152344.171875.015625.019531.035156.042968.054687.0625.277344.316406.558594.621094.851563.921875 0 0 .003906.003906.003906.003906.058594.058594.113281.113281.167969.171875.027344.023438.050781.050781.078125.074219.0625.0625.125.128906.1875.1875.015625.015625.027344.03125.046875.042969.058594.058593.121094.117187.179688.175781.023437.019531.046874.042969.070312.066406.058594.050781.117188.109375.175781.164063.023438.019531.046875.042968.070313.0625.0625.058593.125.117187.1875.171874.019531.015626.039062.035157.058594.050782.0625.058594.128906.117187.195312.175781.019531.015625.039062.035156.0625.050781.0625.054688.125.109375.191406.167969.019532.015625.042969.035156.066406.054687.0625.054688.128907.109376.195313.164063.019531.019531.039063.03125.058594.046875.070312.058594.136719.113281.207031.171875.015625.011719.03125.023437.046875.039063.074219.054687.148437.113281.21875.171874.015625.011719.03125.023438.046875.035157.074219.058593.148438.113281.222656.171875.011719.011718.023438.019531.035156.027344.78125.597656 1.601563 1.148437 2.457032 1.648437.007812.003906.011718.007813.019531.011719.085937.050781.175781.101562.261719.152344.011718.007812.023437.011718.035156.019531.082031.050781.167969.097656.25.140625.019531.007812.035156.019531.050781.027344.085938.046874.167969.09375.25.136718.015625.007813.03125.019532.050781.027344.085938.042969.167969.085938.25.132812.019532.007813.035157.015626.050782.023438.085937.046875.175781.089844.261718.132812.007813.007813.019532.011719.03125.015626.09375.046874.1875.09375.28125.140624.003907 0 .007813.003907.011719.003907.097657.046875.195313.09375.292969.140625.003906 0 .007812.003906.011719.007812.203125.09375.40625.183594.609375.273438 2.34375.769531 4.261718 1.457031 5.433594 2.042968l36.421874 13.4375c3.703126 1.363282 7.851563-.175781 9.765626-3.628906l20.414062-36.828125c1.710938-3.082031 3.789062-5.898437 6.164062-8.398437.140626-.144532.28125-.289063.421876-.4375.285156-.289063.574218-.574219.863281-.855469 1.605469-1.542969 3.332031-2.953125 5.15625-4.210937.332031-.230469.667969-.453126 1.007812-.671876.335938-.21875.679688-.433593 1.023438-.640624.347656-.210938.695312-.414063 1.046875-.613282.875-.5 1.773437-.964844 2.6875-1.398437.730468-.34375 1.472656-.667969 2.226562-.972657.375-.152343.753906-.296874 1.132813-.4375.382812-.140624.765625-.277343 1.152343-.402343.964844-.324219 1.941407-.613281 2.933594-.867188.394532-.097656.792969-.195312 1.195313-.28125.199219-.046875.402343-.089843.601562-.132812 1.203125-.25 2.429688-.445313 3.664063-.585938l35.472656-4.054687c.019531-.003906.042969-.011719.070312-.019532-.015624.003907-.011718.003907-.011718.003907zm0 0" fill="#e7ad27"/><path d="m172.613281 293.183594c3.703125 1.367187 7.847657-.171875 9.765625-3.628906l24.402344-44.015626c7.515625-13.5625 21.125-22.660156 36.53125-24.417968l41.425781-4.734375c5.507813-1.375 54.878907-8.972657 88.910157-21.019531.054687.117187.109374.238281.164062.359374.007812.019532.015625.039063.023438.058594.039062.089844.074218.179688.113281.269532-.003907-.1875-.007813-.378907-.019531-.570313 0-.035156-.003907-.074219-.003907-.113281-.007812-.09375-.015625-.1875-.019531-.277344-.003906-.042969-.007812-.082031-.011719-.121094-.007812-.089844-.015625-.183594-.023437-.273437-.003906-.042969-.007813-.085938-.011719-.128907-.007813-.085937-.015625-.171874-.027344-.257812-.007812-.046875-.011719-.09375-.015625-.136719-.011718-.085937-.023437-.179687-.035156-.265625-.003906-.039062-.007812-.082031-.015625-.121094-.015625-.109374-.03125-.222656-.050781-.332031 0-.015625-.003906-.03125-.003906-.046875-.023438-.132812-.046876-.261718-.070313-.394531 0-.011719-.003906-.027344-.007813-.042969-.019531-.113281-.042968-.230468-.066406-.347656-.003906-.023438-.011718-.050781-.015625-.074219-.019531-.101562-.042969-.203125-.066406-.304687-.007813-.035156-.019531-.074219-.027344-.113282-.019531-.089843-.042969-.175781-.0625-.265624-.011719-.039063-.019531-.078126-.03125-.117188-.023437-.097656-.050781-.195312-.074219-.292969-.007812-.023437-.015624-.054687-.023437-.078125-.03125-.113281-.0625-.226562-.09375-.339844-.007813-.011718-.011719-.027343-.015625-.042968-.074219-.257813-.15625-.515625-.242188-.769532-.003906-.011718-.007812-.019531-.011718-.027343-.035156-.113281-.078125-.226563-.117188-.339844-.007812-.027344-.019531-.054687-.027344-.082031-.039062-.097656-.074218-.191406-.109374-.289063-.011719-.027343-.023438-.058593-.035157-.085937-.039062-.097656-.074219-.191406-.113281-.285156-.011719-.03125-.023438-.0625-.035156-.089844-.042969-.097656-.085938-.199219-.125-.300782-.011719-.019531-.019532-.039062-.027344-.054687-.050781-.125-.105469-.242187-.160156-.363281-34.03125 12.050781-83.40625 19.644531-88.914063 21.019531l-41.425781 4.734375c-15.40625 1.757812-29.011719 10.855469-36.53125 24.417969l-24.40625 44.019531c-1.914062 3.453125-6.0625 4.992188-9.765625 3.625l-48.078125-17.734375.128906.414063c.855469 2.757812 2.171875 5.308593 3.863282 7.5625zm0 0" fill="#136da0"/><path d="m118.816406 191.898438c1.15625-3.117188 4.277344-5.054688 7.582032-4.703126l16.066406 1.707032c7.371094.785156 12.03125 8.296875 9.457031 15.246094-2.570313 6.953124-11 9.621093-17.105469 5.417968l-13.304687-9.164062c-2.738281-1.882813-3.847657-5.386719-2.695313-8.503906zm0 0" fill="#136da0"/><path d="m118.816406 187.898438c1.15625-3.117188 4.277344-5.054688 7.582032-4.703126l16.066406 1.707032c7.371094.785156 12.03125 8.296875 9.457031 15.246094-2.570313 6.953124-11 9.621093-17.105469 5.417968l-13.304687-9.164062c-2.738281-1.882813-3.847657-5.386719-2.695313-8.503906zm0 0" fill="#fede3a"/><path d="m139.484375 198.511719-13.304687-9.164063c-1.9375-1.332031-3.058594-3.472656-3.140626-5.714844-1.910156.730469-3.476562 2.25-4.222656 4.265626-1.15625 3.117187-.042968 6.621093 2.695313 8.503906l13.304687 9.164062c6.105469 4.203125 14.53125 1.535156 17.105469-5.417968.199219-.546876.359375-1.097657.472656-1.648438-3.710937 2.558594-8.828125 2.820312-12.910156.011719zm0 0" fill="#e7ad27"/><path d="m145.085938 196.964844c0 2.4375-1.976563 4.414062-4.414063 4.414062-2.441406 0-4.417969-1.976562-4.417969-4.414062 0-2.441406 1.976563-4.417969 4.417969-4.417969 2.4375 0 4.414063 1.976563 4.414063 4.417969zm0 0" fill="#009add"/></svg>